# xmcd
#
# Track frame offsets: 
#        150
#        15596
#        71362
#        96335
#        142933
#        187302
#        213882
#        242172
#        268013
#        273232
#
# Disc length: 4017 seconds
#
# Revision: 0
# Processed by: cddbd v1.5.2PL0 Copyright (c) Steve Scherf et al.
# Submitted via: ExactAudioCopy v0.95b4
#
DISCID=8f0faf0a
DTITLE=Gert Westphal - St. Petersburg Virtuosen - Mozart Portrait [CD1
DTITLE=)
DYEAR=1999
DGENRE=Swing
TTITLE0=Dankebrief an Mozart (Karl Barth)
TTITLE1=Allegro-Divertimento Es-Dur KV563
TTITLE2=Mozart an Michale Puchberg
TTITLE3=Adagio - Divertimento Es-Dur KV563
TTITLE4=Mozart auf der Reise nach Prag (Mörike)
TTITLE5=Menuetto - Divertimento Es-Dur KV563
TTITLE6=Andante - Divertimento Es-Dur KV563
TTITLE7=Menuetto - Divertimento Es-Dur KV563
TTITLE8=Sehnsucht nach Frühling (Christian Adolf Overbeck)
TTITLE9=Allegro - Divertimento Es-Dur KV563
EXTD=
EXTT0=
EXTT1=
EXTT2=
EXTT3=
EXTT4=
EXTT5=
EXTT6=
EXTT7=
EXTT8=
EXTT9=
PLAYORDER=
